<svg id="Capa_1" enable-background="new 0 0 511.979 511.979" height="512" viewBox="0 0 511.979 511.979" width="512" xmlns="http://www.w3.org/2000/svg"><g><path d="m301.979 203.787-30-30-21.214 21.213 51.214 51.213 81.213-81.213-21.213-21.213z"/><path d="m316.979 0c-107.523 0-195 87.477-195 195 0 48.374 17.713 92.685 46.984 126.803l-22.983 22.983-21.211-21.211-111.61 111.61c-17.544 17.544-17.544 46.09 0 63.635 17.544 17.543 46.09 17.545 63.635 0l111.61-111.61-21.212-21.21 22.983-22.983c34.119 29.271 78.43 46.983 126.804 46.983 107.523 0 195-87.477 195-195s-87.477-195-195-195zm-261.399 477.608c-5.848 5.847-15.361 5.847-21.209 0-5.847-5.848-5.847-15.362 0-21.209l90.397-90.396 21.208 21.208zm261.399-117.608c-90.981 0-165-74.019-165-165s74.019-165 165-165 165 74.019 165 165-74.019 165-165 165z"/><path d="m316.979 60c-74.439 0-135 60.561-135 135s60.561 135 135 135 135-60.561 135-135-60.561-135-135-135zm0 240c-57.897 0-105-47.103-105-105s47.103-105 105-105 105 47.103 105 105-47.103 105-105 105z"/></g></svg>